<?xml version="1.0" encoding="UTF-8"?>
<svg width="40px" height="39px" viewBox="0 0 40 39" version="1.1" xmlns="http://www.w3.org/2000/svg" xmlns:xlink="http://www.w3.org/1999/xlink">
    <!-- Generator: Sketch 64 (93537) - https://sketch.com -->
    <title>brush_gray</title>
    <desc>Created with Sketch.</desc>
    <g id="Page-1" stroke="none" stroke-width="1" fill="none" fill-rule="evenodd">
        <g id="Desktop-HD" transform="translate(-951.000000, -1082.000000)" fill="#000000" fill-rule="nonzero">
            <g id="Group-8" transform="translate(96.000000, 1082.000000)">
                <g id="brush_gray" transform="translate(855.000000, 0.000000)">
                    <path d="M39.7320585,5.77990244 C39.4276683,5.4755122 38.932839,5.4755122 38.6284488,5.77990244 C38.323278,6.08507317 38.323278,6.57912195 38.6284488,6.8835122 C38.932839,7.18868293 39.4276683,7.18868293 39.7320585,6.8835122 C40.0372293,6.57912195 40.0372293,6.08507317 39.7320585,5.77990244 Z" id="Path"></path>
                    <path d="M37.524761,1.36468293 C37.2195902,1.06029268 36.7255415,1.06029268 36.4203707,1.36468293 C36.1159805,1.66985366 36.1159805,2.16390244 36.4203707,2.46829268 C36.7255415,2.77346341 37.2195902,2.77346341 37.524761,2.46829268 C37.8292293,2.16390244 37.8292293,1.66985366 37.524761,1.36468293 Z" id="Path"></path>
                    <path d="M32.0059317,0.261073171 C31.700761,-0.0433170732 31.2067122,-0.0433170732 30.9015415,0.261073171 C30.5971512,0.566243902 30.5971512,1.06029268 30.9015415,1.36468293 C31.2067122,1.66985366 31.700761,1.66985366 32.0059317,1.36468293 C32.3104,1.06029268 32.3104,0.566243902 32.0059317,0.261073171 Z" id="Path"></path>
                    <path d="M4.68113171,34.3106341 C4.37596098,34.006322 3.8819122,34.006322 3.57674146,34.3106341 C3.27235122,34.6158049 3.27235122,35.1098537 3.57674146,35.4150244 C3.8819122,35.7194146 4.37596098,35.7194146 4.68113171,35.4150244 C4.9854439,35.1098537 4.9854439,34.6158049 4.68113171,34.3106341 Z" id="Path"></path>
                    <path d="M11.0268098,27.8484293 C10.7182829,27.5474732 10.2241561,27.5534829 9.92312195,27.8620098 L5.77795122,32.1102049 C5.47691707,32.4186537 5.48300488,32.9127805 5.79145366,33.2138927 C5.94325854,33.3619512 6.13994146,33.4357854 6.33646829,33.4357854 C6.53947317,33.4357854 6.7422439,33.3571122 6.89514146,33.2003122 L11.0403122,28.9521171 C11.3413463,28.6436683 11.3351805,28.1495415 11.0268098,27.8484293 Z" id="Path"></path>
                    <path d="M36.4205268,17.9217951 L33.6675902,15.1689366 C33.6634537,15.164722 33.6593171,15.1605854 33.6551024,15.1564488 L30.3555122,11.8568585 C30.3516878,11.8529561 30.3478634,11.8491317 30.343961,11.8453073 L27.0446049,8.54595122 C27.0408585,8.54212683 27.0370341,8.53830244 27.0332098,8.5345561 L23.7329171,5.23426341 C23.7292488,5.23051707 23.7255024,5.22677073 23.721678,5.22302439 L20.9677268,2.46907317 C20.8213854,2.32273171 20.6228293,2.24046829 20.4158439,2.24046829 C20.2088585,2.24046829 20.0103024,2.32273171 19.863961,2.46907317 L11.0343805,11.2984195 L9.9296,12.4024976 C8.40858537,13.9244488 8.40866341,16.4002341 9.9297561,17.9213268 L12.1378341,20.1293268 C12.2851902,20.276761 12.366361,20.4725854 12.366361,20.6809756 C12.366361,20.8893659 12.2851902,21.0853463 12.1378341,21.2327024 L11.0489756,22.3214829 L1.59414634,30.7891512 C1.5937561,30.7894634 1.5934439,30.7898537 1.59305366,30.7901659 C1.51297561,30.8609561 1.43960976,30.929561 1.36936585,30.9997268 C-0.456507317,32.8256 -0.456507317,35.7965268 1.36936585,37.6224 C2.2524878,38.5054439 3.42844878,38.9918439 4.68066341,38.9918439 C5.9328,38.9918439 7.10883902,38.505522 7.99180488,37.6225561 C8.06321951,37.5512195 8.13354146,37.4760585 8.20682927,37.3928585 C8.20698537,37.3927024 8.20714146,37.3924683 8.20729756,37.3922341 C8.2076878,37.3918439 8.20807805,37.3914537 8.20839024,37.3910634 L16.5713951,27.8371122 L17.6567415,26.7516878 C17.9609756,26.4474537 18.455961,26.4475317 18.7602732,26.7517659 L20.968039,28.9586732 C21.7050537,29.6962341 22.6850341,30.1024 23.7272976,30.1024 C24.769561,30.1024 25.7495415,29.6962341 26.4862439,28.9590634 L27.5908683,27.8552976 L36.4204488,19.025639 C36.7252293,18.7208585 36.7252293,18.2266537 36.4205268,17.9217951 Z M7.03399024,36.3628488 L7.03399024,36.3628488 C6.98333659,36.4202146 6.93572683,36.4711805 6.88827317,36.5185561 C6.29994146,37.1068878 5.51601951,37.4307902 4.68074146,37.4307902 C3.84546341,37.4307902 3.06154146,37.1068878 2.4732878,36.5185561 C1.25603902,35.3013073 1.25603902,33.3207415 2.47313171,32.1037268 C2.5216,32.0553366 2.57319024,32.0071024 2.63086829,31.9562146 C2.63164878,31.9555122 2.63235122,31.9547317 2.63313171,31.9540293 C2.63399024,31.9532488 2.63484878,31.9527024 2.63570732,31.951922 L11.5566829,23.9624585 L14.9331512,27.3389268 L7.03399024,36.3628488 Z M25.3825561,27.8553756 C24.9404098,28.2978341 24.3525463,28.5415024 23.7273756,28.5415024 C23.1022049,28.5415024 22.5144195,28.2978341 22.071961,27.8550634 L19.864039,25.647922 C18.9512585,24.7351415 17.4659122,24.7352195 16.5530537,25.647922 L16.0013268,26.1996488 L12.6899512,22.8882732 L13.2416,22.3366244 C13.6838244,21.894322 13.9273366,21.3063805 13.9273366,20.6810537 C13.9273366,20.0557268 13.6837463,19.4677854 13.2416,19.025561 L11.0336,16.817561 C10.1208976,15.9049366 10.1209756,14.419278 11.0333659,13.5063415 L11.5858732,12.9542244 L25.9349854,27.3033366 L25.3825561,27.8553756 Z M27.0390634,26.1997268 L12.6898732,11.8505366 L20.4156878,4.12472195 L22.0716488,5.78068293 L18.2084683,9.64323902 C17.9036098,9.94794146 17.9036098,10.4421463 18.2083902,10.7470049 C18.3608195,10.8994341 18.5605463,10.9756878 18.7603512,10.9756878 C18.960078,10.9756878 19.1598049,10.8994341 19.3121561,10.7470829 L23.1754927,6.88444878 L25.3833366,9.09229268 L21.520078,12.9548488 C21.2152195,13.2595512 21.2152195,13.7537561 21.52,14.0586146 C21.6724293,14.2110439 21.8721561,14.2872976 22.071961,14.2872976 C22.2716878,14.2872976 22.4714146,14.2110439 22.6237659,14.0586927 L26.4871024,10.1960585 L28.6941659,12.403122 L24.8309854,16.265678 C24.5261268,16.5703805 24.5261268,17.0645854 24.8309073,17.3694439 C24.9833366,17.5218732 25.1830634,17.5981268 25.3828683,17.5981268 C25.5825951,17.5981268 25.782322,17.5218732 25.9346732,17.369522 L29.7979317,13.5068878 L32.0057756,15.7147317 L28.1425951,19.5772878 C27.8377366,19.8819902 27.8377366,20.3761951 28.1425171,20.6810537 C28.2949463,20.8334829 28.4946732,20.9097366 28.694478,20.9097366 C28.8942049,20.9097366 29.0939317,20.8334829 29.2462829,20.6811317 L33.1096195,16.8184976 L34.7649561,18.4738341 L27.0390634,26.1997268 Z" id="Shape"></path>
                    <path d="M29.7980878,2.46899512 C29.4933073,2.16429268 28.9991024,2.16429268 28.6942439,2.46899512 L26.4870244,4.67621463 C26.1822439,4.98099512 26.1822439,5.4752 26.4870244,5.78005854 C26.6395317,5.93240976 26.8392585,6.00866341 27.0389854,6.00866341 C27.2387122,6.00866341 27.4385171,5.93240976 27.5908683,5.78005854 L29.7980878,3.57283902 C30.1028683,3.26805854 30.1028683,2.77385366 29.7980878,2.46899512 Z" id="Path"></path>
                    <path d="M25.3828683,0.260917073 C25.0780878,-0.0437073171 24.5838829,-0.0437853659 24.2791024,0.260917073 L23.1754927,1.36452683 C22.8707122,1.66930732 22.8706341,2.1635122 23.1754927,2.46837073 C23.327922,2.6208 23.5276488,2.69697561 23.7273756,2.69697561 C23.9271024,2.69697561 24.1269073,2.62072195 24.2792585,2.46837073 L25.3828683,1.36476098 C25.6876488,1.05998049 25.6877268,0.56577561 25.3828683,0.260917073 Z" id="Path"></path>
                    <path d="M35.3169171,3.57260488 C35.0121366,3.26790244 34.5179317,3.26790244 34.2130732,3.57260488 L29.7978537,7.98782439 C29.4931512,8.29260488 29.4931512,8.7868878 29.7979317,9.09166829 C29.950361,9.24401951 30.1500878,9.32027317 30.3498146,9.32027317 C30.5495415,9.32027317 30.7493463,9.24401951 30.9016976,9.09166829 L35.3169171,4.67644878 C35.6216976,4.37166829 35.6216976,3.87746341 35.3169171,3.57260488 Z" id="Path"></path>
                    <path d="M37.5249951,7.98790244 C37.2202146,7.68296585 36.7260878,7.6830439 36.4212293,7.98774634 L33.1096195,11.2985756 C32.804761,11.6033561 32.804761,12.0974829 33.1095415,12.4024195 C33.2619707,12.5548488 33.4616976,12.6311024 33.6615024,12.6311024 C33.8612293,12.6311024 34.0609561,12.5548488 34.2133073,12.4025756 L37.5249171,9.09174634 C37.8296976,8.78696585 37.8296976,8.29283902 37.5249951,7.98790244 Z" id="Path"></path>
                    <path d="M38.6285268,13.5066537 C38.3237463,13.2019512 37.8295415,13.2019512 37.524761,13.5066537 L36.4211512,14.6102634 C36.1163707,14.9150439 36.1163707,15.4092488 36.4211512,15.7141073 C36.5735805,15.8664585 36.7733073,15.9427122 36.9730341,15.9427122 C37.172761,15.9427122 37.3725659,15.8664585 37.5249171,15.7141073 L38.6285268,14.6104976 C38.9333073,14.3057171 38.9333073,13.8115122 38.6285268,13.5066537 Z" id="Path"></path>
                </g>
            </g>
        </g>
    </g>
</svg>