<?xml version="1.0" encoding="UTF-8"?>
<svg width="40px" height="37px" viewBox="0 0 40 37" version="1.1" xmlns="http://www.w3.org/2000/svg" xmlns:xlink="http://www.w3.org/1999/xlink">
    <!-- Generator: Sketch 64 (93537) - https://sketch.com -->
    <title>bulb_gray</title>
    <desc>Created with Sketch.</desc>
    <g id="Page-1" stroke="none" stroke-width="1" fill="none" fill-rule="evenodd">
        <g id="Desktop-HD" transform="translate(-96.000000, -1082.000000)" fill="#010002" fill-rule="nonzero">
            <g id="Group-8" transform="translate(96.000000, 1082.000000)">
                <g id="bulb_gray">
                    <path d="M20.3581084,5.24465558 C20.3581084,4.8570935 20.0443101,4.54251781 19.6559706,4.54251781 C15.602764,4.54251781 12.3049881,7.84029367 12.3049881,11.8935003 C12.3049881,12.2810624 12.6187864,12.5956381 13.0071259,12.5956381 C13.395379,12.5956381 13.7092637,12.2810624 13.7092637,11.8935003 C13.7092637,8.61472684 16.3772835,5.94670697 19.656057,5.94670697 C20.0443101,5.94670697 20.3581084,5.63290866 20.3581084,5.24465558 Z" id="Path"></path>
                    <path d="M9.35478298,11.8935003 C9.35478298,14.3030879 10.1334485,16.5813863 11.6070827,18.4820557 C11.614079,18.4912114 11.6218527,18.5002807 11.6295401,18.5094364 C14.702656,22.7753833 13.9387605,24.8044915 13.9387605,24.8079464 C13.7744764,25.1589721 13.9261499,25.5767653 14.2771756,25.7417404 C14.3733967,25.7866552 14.4744548,25.8084215 14.5741309,25.8077465 C14.8380911,25.8077465 15.0909091,25.6582164 15.2101922,25.4033254 C15.337249,25.1337508 16.3412654,22.6208594 12.7317642,17.6374001 C12.7156122,17.6156338 12.6994602,17.5945584 12.6812352,17.5749514 C11.4237962,15.9320233 10.7595768,13.9689916 10.7595768,11.8928093 C10.7595768,6.73375081 14.9574606,2.53664435 20.1157417,2.53664435 C25.2740229,2.53664435 29.4720795,6.73375081 29.4720795,11.8928093 C29.4720795,13.9745195 28.8037141,15.945325 27.5265817,17.6064781 C23.9150076,22.5934787 24.9597063,25.1351328 25.0903045,25.4089398 C25.2552796,25.7522781 25.6603757,25.892723 26.0072555,25.7375081 C26.3541352,25.5822932 26.5113366,25.1695098 26.3645865,24.8184841 C26.3561218,24.7980998 25.5515439,22.7283092 28.6520406,18.4462103 C30.1067588,16.5533146 30.8762686,14.2876269 30.8762686,11.8935003 C30.8762686,5.96000864 26.0493198,1.13305981 20.1158281,1.13305981 C14.1823364,1.13305981 9.35478298,5.96078601 9.35478298,11.8935003 Z" id="Path"></path>
                    <path d="M26.3821205,28.5108184 L26.3821205,27.9140574 C26.3821205,26.9627294 25.6076873,26.1889873 24.6570503,26.1889873 L15.1955949,26.1889873 C14.2442669,26.1889873 13.4705247,26.9627294 13.4705247,27.9140574 L13.4705247,28.5108184 C13.4705247,29.4614554 14.2442669,30.2358886 15.1955949,30.2358886 L24.6578277,30.2358886 C25.6084647,30.2358886 26.3821205,29.4621464 26.3821205,28.5108184 Z M14.8747139,28.5108184 L14.8747139,27.9140574 C14.8747139,27.7371626 15.0186137,27.5931764 15.1955949,27.5931764 L24.6578277,27.5931764 C24.8347225,27.5931764 24.9787087,27.7370762 24.9787087,27.9140574 L24.9787087,28.5108184 C24.9787087,28.6877132 24.8348089,28.8316994 24.6578277,28.8316994 L15.1955949,28.8316994 C15.0186137,28.8316994 14.8747139,28.6877996 14.8747139,28.5108184 Z" id="Shape"></path>
                    <path d="M16.3322824,31.3031311 C15.9440294,31.3031311 15.6301447,31.6177068 15.6301447,32.0052688 L15.6301447,33.8595552 C15.6301447,34.1347441 15.7908875,34.3840207 16.0408551,34.4984669 L19.8244872,36.224919 C19.9171669,36.2670697 20.016152,36.2881451 20.1158281,36.2881451 C20.2183546,36.2881451 20.320881,36.2656878 20.4156338,36.2207731 L24.2098035,34.4304038 C24.4555388,34.3145757 24.6121356,34.0674584 24.6121356,33.7957245 L24.6121356,32.0060462 C24.6121356,31.6184841 24.2983373,31.3039084 23.9099978,31.3039084 C23.5216584,31.3039084 23.2078601,31.6184841 23.2078601,32.0060462 L23.2078601,33.3512416 L20.1109048,34.8130425 L17.0343338,33.4088534 L17.0343338,32.0060462 C17.0343338,31.6169294 16.7205355,31.3031311 16.3322824,31.3031311 Z" id="Path"></path>
                    <path d="M36.4727273,24.5805226 C36.7030015,24.2687972 36.6363204,23.8292377 36.3245951,23.5989635 L31.5615634,20.0870654 C31.2491471,19.8567912 30.8102786,19.9227813 30.5800043,20.2351976 C30.3497301,20.5469229 30.4164111,20.9864824 30.7281365,21.2167566 L35.4911682,24.7286547 C35.616843,24.8213345 35.7629022,24.8655618 35.907493,24.8655618 C36.1223926,24.8662492 36.3351328,24.7672641 36.4727273,24.5805226 Z" id="Path"></path>
                    <path d="M8.56488879,4.87739149 C8.69056359,4.97007126 8.83662276,5.01429497 8.98121356,5.01429497 C9.19671777,5.01429497 9.408767,4.91530987 9.54713885,4.72856834 C9.77741309,4.41684301 9.71073202,3.97728352 9.39900669,3.74700929 L4.52852516,0.156424098 C4.21679983,-0.0745411358 3.77724034,-0.00716907795 3.5469661,0.304556251 C3.31669186,0.616972576 3.38268193,1.05653207 3.69509825,1.28680631 L8.56488879,4.87739149 Z" id="Path"></path>
                    <path d="M8.78609372,19.8454761 L3.69587562,23.5988771 C3.38415029,23.8291514 3.31746923,24.2687109 3.54774347,24.5804362 C3.68533794,24.7671777 3.89807817,24.8661628 4.11366875,24.8661628 C4.25825956,24.8661628 4.40431872,24.8219391 4.52999352,24.7292593 L9.62021162,20.9758583 C9.93193695,20.7455841 9.99861801,20.3060246 9.76834377,19.9942993 C9.53660117,19.681883 9.09781905,19.6158929 8.78609372,19.8454761 Z" id="Path"></path>
                    <path d="M30.9359534,3.51535306 C30.624228,3.74562729 30.557547,4.18518678 30.7878212,4.49691211 C30.9254157,4.68365364 31.1381559,4.78263874 31.3537465,4.78263874 C31.4983373,4.78263874 31.6443965,4.73772403 31.7700713,4.64573526 L36.3259771,1.28689268 C36.6377024,1.05661844 36.7043835,0.617058951 36.4741093,0.305333621 C36.243835,-0.00639170805 35.8049665,-0.0737637659 35.4925502,0.157201468 L30.9359534,3.51535306 Z" id="Path"></path>
                    <path d="M39.2327359,11.7411358 L33.8624055,11.7411358 C33.4741525,11.7411358 33.1602678,12.0557115 33.1602678,12.4432736 C33.1602678,12.8308357 33.4740661,13.1454114 33.8624055,13.1454114 L39.2327359,13.1454114 C39.620989,13.1454114 39.9348737,12.8308357 39.9348737,12.4432736 C39.9348737,12.0557115 39.620989,11.7411358 39.2327359,11.7411358 Z" id="Path"></path>
                    <path d="M6.94588642,12.4432736 C6.94588642,12.0557115 6.6320881,11.7411358 6.24374865,11.7411358 L0.702137767,11.7411358 C0.31388469,11.7411358 0,12.0557115 0,12.4432736 C0,12.8308357 0.313798316,13.1454114 0.702137767,13.1454114 L6.24383502,13.1454114 C6.63131073,13.145325 6.94588642,12.8308357 6.94588642,12.4432736 Z" id="Path"></path>
                </g>
            </g>
        </g>
    </g>
</svg>