<?xml version="1.0" encoding="UTF-8"?>
<svg width="14px" height="14px" viewBox="0 0 14 14" version="1.1" xmlns="http://www.w3.org/2000/svg" xmlns:xlink="http://www.w3.org/1999/xlink">
    <!-- Generator: Sketch 64 (93537) - https://sketch.com -->
    <title>dribbble_black</title>
    <desc>Created with Sketch.</desc>
    <g id="Page-1" stroke="none" stroke-width="1" fill="none" fill-rule="evenodd">
        <g id="Desktop-HD" transform="translate(-1276.000000, -28.000000)" fill="#212121" fill-rule="nonzero">
            <g id="header">
                <g id="Group" transform="translate(1273.000000, 28.000000)">
                    <path d="M9.99998521,13.9983436 C6.1400581,13.9983436 3,10.8580489 3,6.99880209 C3,3.14026515 6.1400581,-8.8817842e-15 9.99998521,-8.8817842e-15 C13.8599123,-8.8817842e-15 17,3.14026515 17,6.99880209 C17,10.8580489 13.8599123,13.9983436 9.99998521,13.9983436 Z M15.5943358,7.90702372 C15.4006887,7.84665505 13.8405683,7.38056515 12.0652089,7.66457297 C12.8062853,9.70066234 13.1080104,11.3601352 13.1658649,11.704068 C14.4369197,10.8446797 15.3421243,9.48353034 15.5943358,7.90702372 Z M12.2136016,12.2231913 C12.1288016,11.7261924 11.7998648,9.99342524 11.0043353,7.92687054 C10.9923562,7.93104104 10.9799039,7.93470871 10.9669783,7.93932288 C7.77160936,9.05201711 6.62436803,11.2693308 6.52226483,11.4777077 C7.48257328,12.2264153 8.69024243,12.6733682 9.99998521,12.6733682 C10.7846596,12.6733682 11.5331305,12.5124344 12.2136016,12.2231913 Z M5.79062378,10.7958464 C5.91875561,10.5759341 7.47402525,8.00152538 10.3960344,7.05692283 C10.470009,7.03293509 10.5444568,7.01081075 10.6191412,6.99004701 C10.4771373,6.66758781 10.3225036,6.346223 10.1597951,6.02814134 C7.33045371,6.8750478 4.58481804,6.83999789 4.33651085,6.83449638 C4.33488406,6.8921143 4.33399673,6.94996884 4.33399673,7.00758675 C4.33399673,8.46303069 4.88559658,9.79149633 5.79062378,10.7958464 Z M4.4536101,5.84741985 C4.70721175,5.85061427 7.04138805,5.86031585 9.69184176,5.15724713 C8.75318439,3.48810226 7.7405229,2.0849522 7.59091745,1.88074579 C6.00589236,2.62803359 4.82082079,4.08927481 4.4536101,5.84741985 Z M8.67225902,1.50016585 C8.82899276,1.7096963 9.8579813,3.11077589 10.7864934,4.81677494 C12.801612,4.06073206 13.6540495,2.91529499 13.7557387,2.77051075 C12.7553225,1.88213595 11.4395162,1.34295885 9.99995563,1.34295885 C9.54267998,1.34295885 9.09824117,1.39735277 8.67225902,1.50016585 Z M14.3857202,3.42495326 C14.2665505,3.58680399 13.3166239,4.80387894 11.2219109,5.65838694 C11.3537992,5.92902551 11.4800676,6.20377542 11.5981133,6.4795014 C11.6394042,6.57770031 11.6801627,6.67498231 11.7198268,6.77179105 C13.6051867,6.53481223 15.4783605,6.91447525 15.6657667,6.954583 C15.6530777,5.61736228 15.1752453,4.38940263 14.3857202,3.42495326 Z" id="dribbble_black"></path>
                </g>
            </g>
        </g>
    </g>
</svg>