<?xml version="1.0" encoding="UTF-8"?>
<svg width="8px" height="14px" viewBox="0 0 8 14" version="1.1" xmlns="http://www.w3.org/2000/svg" xmlns:xlink="http://www.w3.org/1999/xlink">
    <!-- Generator: Sketch 64 (93537) - https://sketch.com -->
    <title>facebook_black</title>
    <desc>Created with Sketch.</desc>
    <g id="Page-1" stroke="none" stroke-width="1" fill="none" fill-rule="evenodd">
        <g id="Desktop-HD" transform="translate(-1209.000000, -28.000000)" fill="#212121" fill-rule="nonzero">
            <g id="header">
                <g id="Group-2-Copy" transform="translate(1203.000000, 28.000000)">
                    <path d="M13.6987435,0.00291293447 L11.7799073,0 C9.62416056,0 8.23102234,1.35232983 8.23102234,3.44541889 L8.23102234,5.0339877 L6.30171833,5.0339877 C6.13500356,5.0339877 6,5.16186553 6,5.31960093 L6,7.6212561 C6,7.7789915 6.1351575,7.90672368 6.30171833,7.90672368 L8.23102234,7.90672368 L8.23102234,13.7145324 C8.23102234,13.8722678 8.3660259,14 8.53274067,14 L11.0499336,14 C11.2166484,14 11.3516519,13.8721222 11.3516519,13.7145324 L11.3516519,7.90672368 L13.6074583,7.90672368 C13.7741731,7.90672368 13.9091766,7.7789915 13.9091766,7.6212561 L13.9101003,5.31960093 C13.9101003,5.24386463 13.8782351,5.17133256 13.8217399,5.11773457 C13.7652447,5.06413658 13.6882757,5.0339877 13.608228,5.0339877 L11.3516519,5.0339877 L11.3516519,3.6873381 C11.3516519,3.04008406 11.5146722,2.71150505 12.4058189,2.71150505 L13.6984356,2.71106811 C13.8649964,2.71106811 14,2.58319029 14,2.42560053 L14,0.288380512 C14,0.130936404 13.8651504,0.00320422792 13.6987435,0.00291293447 Z" id="facebook_black"></path>
                </g>
            </g>
        </g>
    </g>
</svg>