<?xml version="1.0" encoding="UTF-8"?>
<svg width="40px" height="40px" viewBox="0 0 40 40" version="1.1" xmlns="http://www.w3.org/2000/svg" xmlns:xlink="http://www.w3.org/1999/xlink">
    <!-- Generator: Sketch 64 (93537) - https://sketch.com -->
    <title>global_gray</title>
    <desc>Created with Sketch.</desc>
    <g id="Page-1" stroke="none" stroke-width="1" fill="none" fill-rule="evenodd">
        <g id="Desktop-HD" transform="translate(-524.000000, -1082.000000)" fill="#000000" fill-rule="nonzero">
            <g id="Group-8" transform="translate(96.000000, 1082.000000)">
                <g id="global_gray" transform="translate(428.000000, 0.000000)">
                    <path d="M19.9696466,0.00415779069 C11.9821206,0.00299376299 4.76316008,4.764158 1.61929314,12.1069439 L1.37047817,12.1894387 L1.46694387,12.4788358 C-2.67243243,22.6880665 2.24806653,34.3199168 12.4572973,38.4592931 C14.8417464,39.4261123 17.3906861,39.9224116 19.9637422,39.9210009 C30.9864449,39.9226611 39.9234927,30.9882744 39.9251559,19.9655717 C39.9268191,8.94286902 30.9924324,0.00573804574 19.9696466,0.00415779069 Z M35.6247817,30.0252807 L34.5999168,29.0010811 L34.5999168,26.6153846 C34.6010811,26.5124324 34.5782952,26.4106445 34.5333888,26.3180042 L31.9387942,21.1361331 L31.9387942,18.6320166 C31.9387942,18.4096466 31.8277755,18.2019127 31.6427443,18.0785031 L29.6469023,16.7479418 C29.4904782,16.6434927 29.297131,16.6101455 29.1146778,16.6561331 L26.6704366,17.2668607 L22.5649896,15.5051975 L22.0001663,11.5481081 L23.5655717,9.98336798 L26.9259044,9.98336798 L28.0568815,11.6831601 C28.1590021,11.8360083 28.3199168,11.9398753 28.501289,11.969896 L32.492973,12.6351767 C32.5999168,12.6531393 32.7095218,12.6444075 32.8123077,12.609896 L36.4886486,11.3844491 C39.5721414,17.3017048 39.2423285,24.4186279 35.6247817,30.0252807 Z M32.8808316,6.55983368 L31.7990852,7.28099792 L28.783368,6.67758836 L26.8267775,6.02627859 C26.707027,5.98561331 26.5781289,5.98045738 26.4555509,6.01164241 L23.9820374,6.62968815 L22.8976299,6.26844075 L23.701289,4.66112266 L25.9512682,4.66112266 C26.0544699,4.66120582 26.1562578,4.63733888 26.2486486,4.59126819 L28.5505198,3.44033264 C30.1357173,4.26777547 31.5940125,5.31825364 32.8808316,6.55983368 Z M12.6769231,2.82029106 L14.2735967,3.88474012 C14.3520998,3.93696466 14.4407484,3.97189189 14.5337214,3.98719335 L17.7576715,4.52474012 L17.4429938,5.46611227 L15.7631601,6.02694387 C15.6127235,6.07700624 15.4850728,6.17912682 15.4032432,6.3150104 L13.4925572,9.49904366 L10.4236175,11.3405405 L5.89970894,11.9865281 C5.57180873,12.0328482 5.32798337,12.3133472 5.32756757,12.6444906 L5.32756757,14.6403326 C5.32756757,14.8167983 5.39775468,14.9859459 5.5224948,15.1106861 L6.6581289,16.2463202 L6.6581289,17.3892723 L3.89056133,15.5437838 L2.88665281,12.5320582 C4.7966736,8.16781705 8.29746362,4.69505198 12.6769231,2.82029106 Z M10.782869,24.6328482 L7.77580042,24.0307692 L6.6581289,21.8014137 L6.6581289,20.2380042 L9.13696466,17.7591684 L10.0543867,19.5946778 C10.1670686,19.8202079 10.3976715,19.9626611 10.6498129,19.962578 L14.9302287,19.962578 L16.732474,22.9663202 C16.8527235,23.1664865 17.069106,23.2888981 17.3026195,23.2889813 L19.1520998,23.2889813 L18.6864033,25.6221206 L16.1676507,28.1408732 C16.0426611,28.2655301 15.9723077,28.4346778 15.9720582,28.6112266 L15.9720582,30.2744283 L13.5770478,32.0706861 C13.4095634,32.196341 13.3109356,32.3935135 13.3109356,32.6029106 L13.3109356,35.0059044 L12.4833264,34.7318087 L11.3150936,31.809896 L11.3150936,25.2848233 C11.3151767,24.9686486 11.0926403,24.6960499 10.782869,24.6328482 Z M8.78303534,34.8599584 C2.51035343,30.1540125 -0.142370062,22.0229522 2.14819127,14.5232432 L2.7010395,16.1811227 C2.74760915,16.3214137 2.8395842,16.4422453 2.9624948,16.5244075 L6.27891892,18.7351351 L5.5224948,19.4922245 C5.39775468,19.6169647 5.32756757,19.7861123 5.32756757,19.962578 L5.32756757,21.95842 C5.32748441,22.0616216 5.35135135,22.1634096 5.39742204,22.2558004 L6.72798337,24.9169231 C6.82012474,25.1007069 6.99201663,25.2316008 7.19367983,25.2715177 L9.98785863,25.8296881 L9.98785863,31.9376299 C9.98777547,32.0221206 10.0038254,32.1059459 10.0350936,32.1844491 L11.3656549,35.5108524 C11.4385031,35.6925572 11.5876923,35.8330146 11.7734719,35.8947193 L13.7693139,36.56 C13.8360083,36.5826195 13.9058628,36.594262 13.9762162,36.5945946 C14.3436175,36.5945946 14.6414969,36.2967152 14.6414969,35.9293139 L14.6414969,32.9355509 L17.0365073,31.1392931 C17.2039917,31.0136383 17.3026195,30.8164657 17.3026195,30.6070686 L17.3026195,28.8866528 L19.768815,26.4204574 C19.8615385,26.3275676 19.9247401,26.2092308 19.9504366,26.080499 L20.6157173,22.7540956 C20.6877339,22.393763 20.4540541,22.0433264 20.0937214,21.9713098 C20.050894,21.9627443 20.0074012,21.95842 19.9637422,21.95842 L17.6791684,21.95842 L15.8769231,18.9546778 C15.7566736,18.7545114 15.5402911,18.6320998 15.3067775,18.6320166 L11.0609563,18.6320166 L9.91800416,16.3387942 C9.8222869,16.1473597 9.64033264,16.0136383 9.42902287,15.9795426 C9.21779626,15.9430353 9.00216216,16.0127235 8.85222453,16.1658212 L7.98869023,17.0260291 L7.98869023,15.970894 C7.98869023,15.7944283 7.91850312,15.6252807 7.79376299,15.5005405 L6.6581289,14.3649064 L6.6581289,13.221289 L10.7442827,12.6378378 C10.8320166,12.6251143 10.9164241,12.5950104 10.9924324,12.5493555 L14.3188358,10.5535135 C14.4121414,10.4974636 14.4903119,10.4192931 14.5463617,10.3259875 L16.4158004,7.21047817 L18.1781289,6.62237006 C18.377131,6.5570894 18.5333056,6.40099792 18.5985863,6.20191268 L19.2638669,4.20607069 C19.3791268,3.85721414 19.1897713,3.48091476 18.8409148,3.36565489 C18.8087318,3.3550104 18.7757173,3.34686071 18.7422869,3.34120582 L14.8916424,2.69920998 L14.215052,2.24814969 C18.40158,0.885488565 22.9359667,1.05413721 27.0097297,2.72382536 L25.794262,3.33056133 L23.2901455,3.33056133 C23.0367568,3.32914761 22.804657,3.47185031 22.6913929,3.69846154 L21.3608316,6.3595842 C21.1969231,6.68839917 21.3305613,7.08790021 21.6593763,7.25180873 C21.6874012,7.26577963 21.716341,7.27775468 21.7460291,7.28765073 L23.7418711,7.95293139 C23.8616216,7.99359667 23.9905198,7.9987526 24.1130977,7.96756757 L26.5866112,7.34952183 L28.3988358,7.95293139 C28.4247817,7.96224532 28.4514761,7.96939709 28.4786694,7.97422037 L31.8050728,8.63950104 C31.9780457,8.67476091 32.1580042,8.63933472 32.3046985,8.5410395 L33.8188773,7.53114345 C34.5640748,8.36116424 35.233763,9.25596674 35.8200416,10.2049064 L32.5468607,11.2959667 L29.0029106,10.7051975 L27.8320166,8.94885655 C27.7092723,8.76482328 27.5030353,8.65388773 27.2818295,8.65280665 L23.2901455,8.65280665 C23.1136798,8.65280665 22.9445322,8.72299376 22.8197921,8.84773389 L20.8239501,10.8435759 C20.6757588,10.991684 20.6059875,11.2009979 20.6356757,11.4083992 L21.3009563,16.0653638 C21.3344699,16.2956341 21.4858212,16.4916424 21.7001247,16.5822869 L26.3570894,18.5781289 C26.4904782,18.6359252 26.6393347,18.647817 26.7802079,18.6120582 L29.1559252,18.0179626 L30.6082328,18.9879418 L30.6082328,21.2931393 C30.6070686,21.3960915 30.6298545,21.4978794 30.6747609,21.5905198 L33.2693555,26.7723909 L33.2693555,29.2765073 C33.2693555,29.452973 33.3395426,29.6221206 33.4642827,29.7468607 L34.8560499,31.1392931 C28.683659,39.3665696 17.0103119,41.0324324 8.78303534,34.8599584 Z" id="Shape"></path>
                </g>
            </g>
        </g>
    </g>
</svg>