<?xml version="1.0" encoding="UTF-8"?>
<svg width="14px" height="14px" viewBox="0 0 14 14" version="1.1" xmlns="http://www.w3.org/2000/svg" xmlns:xlink="http://www.w3.org/1999/xlink">
    <!-- Generator: Sketch 64 (93537) - https://sketch.com -->
    <title>search_black</title>
    <desc>Created with Sketch.</desc>
    <g id="Page-1" stroke="none" stroke-width="1" fill="none" fill-rule="evenodd">
        <g id="Desktop-HD" transform="translate(-1155.000000, -28.000000)" fill="#212121" fill-rule="nonzero">
            <g id="header">
                <g id="Group-3" transform="translate(1152.000000, 28.000000)">
                    <path d="M16.7871392,12.7517818 L13.3358997,9.28631113 C14.223274,8.26787909 14.7094716,6.98648317 14.7094716,5.65249447 C14.7094716,2.53575817 12.0829862,0 8.85473581,0 C5.6264854,0 3,2.53575817 3,5.65249447 C3,8.76923077 5.6264854,11.3049889 8.85473581,11.3049889 C10.0666661,11.3049889 11.2215764,10.9520767 12.2089903,10.2821332 L15.6864488,13.7739002 C15.831799,13.9196363 16.0272963,14 16.236794,14 C16.4350914,14 16.6232066,13.9270091 16.7660112,13.7942984 C17.0694393,13.5124109 17.0791123,13.0449742 16.7871392,12.7517818 Z M8.85473581,1.47456377 C11.2409225,1.47456377 13.1821492,3.34873433 13.1821492,5.65249447 C13.1821492,7.95625461 11.2409225,9.83042517 8.85473581,9.83042517 C6.46854914,9.83042517 4.52732239,7.95625461 4.52732239,5.65249447 C4.52732239,3.34873433 6.46854914,1.47456377 8.85473581,1.47456377 Z" id="search_black"></path>
                </g>
            </g>
        </g>
    </g>
</svg>