<?xml version="1.0" encoding="UTF-8"?>
<svg width="18px" height="14px" viewBox="0 0 18 14" version="1.1" xmlns="http://www.w3.org/2000/svg" xmlns:xlink="http://www.w3.org/1999/xlink">
    <!-- Generator: Sketch 64 (93537) - https://sketch.com -->
    <title>twitter_black</title>
    <desc>Created with Sketch.</desc>
    <g id="Page-1" stroke="none" stroke-width="1" fill="none" fill-rule="evenodd">
        <g id="Desktop-HD" transform="translate(-1239.000000, -28.000000)" fill="#212121" fill-rule="nonzero">
            <g id="header">
                <g id="Group-2" transform="translate(1238.000000, 28.000000)">
                    <path d="M18.2307692,1.65738462 C17.59,1.93846154 16.9072308,2.12476923 16.1953846,2.21523077 C16.9276923,1.778 17.4866154,1.09092308 17.7493846,0.262769231 C17.0666154,0.669846154 16.3127692,0.957384615 15.5093846,1.11784615 C14.8610769,0.427538462 13.9370769,0 12.9290769,0 C10.9733846,0 9.39892308,1.58738462 9.39892308,3.53338462 C9.39892308,3.81338462 9.42261538,4.08261538 9.48076923,4.33892308 C6.544,4.19569231 3.94538462,2.78815385 2.19969231,0.644 C1.89492308,1.17276923 1.71615385,1.778 1.71615385,2.42953846 C1.71615385,3.65292308 2.34615385,4.73738462 3.28523077,5.36523077 C2.71769231,5.35446154 2.16092308,5.18969231 1.68923077,4.93015385 C1.68923077,4.94092308 1.68923077,4.95492308 1.68923077,4.96892308 C1.68923077,6.68553846 2.91369231,8.11138462 4.51938462,8.43984615 C4.23184615,8.51846154 3.91846154,8.55615385 3.59323077,8.55615385 C3.36707692,8.55615385 3.13876923,8.54323077 2.92446154,8.49584615 C3.38215385,9.89476923 4.68092308,10.9232308 6.22523077,10.9566154 C5.02338462,11.8967692 3.49738462,12.4632308 1.84538462,12.4632308 C1.55569231,12.4632308 1.27784615,12.4503077 1,12.4147692 C2.56476923,13.4238462 4.41923077,14 6.41907692,14 C12.9193846,14 16.4732308,8.61538462 16.4732308,3.948 C16.4732308,3.79184615 16.4678462,3.64107692 16.4603077,3.49138462 C17.1613846,2.99384615 17.7504615,2.37246154 18.2307692,1.65738462 Z" id="twitter_black"></path>
                </g>
            </g>
        </g>
    </g>
</svg>